<svg width="8" height="8" viewBox="0 0 8 8" fill="none" xmlns="http://www.w3.org/2000/svg">
<path d="M1.29231 7.56923C1.0544 7.80714 0.668677 7.80714 0.430769 7.56923V7.56923C0.192862 7.33132 0.192862 6.9456 0.430769 6.70769L4.20059 2.93788C4.83055 2.30791 4.38438 1.23077 3.49348 1.23077H1.23077C0.890902 1.23077 0.615385 0.955252 0.615385 0.615385V0.615385C0.615385 0.275517 0.890902 0 1.23077 0H7C7.55228 0 8 0.447715 8 1V6.76923C8 7.1091 7.72448 7.38462 7.38462 7.38462V7.38462C7.04475 7.38462 6.76923 7.1091 6.76923 6.76923V4.50652C6.76923 3.61562 5.69209 3.16945 5.06212 3.79941L1.29231 7.56923Z" />
</svg>
