<svg width="11" height="10" viewBox="0 0 11 10"  xmlns="http://www.w3.org/2000/svg">
<path d="M2.10526 2.10526C2.10526 0.942105 3.04737 0 4.21053 0C5.37368 0 6.31579 0.942105 6.31579 2.10526C6.31579 3.26842 5.37368 4.21053 4.21053 4.21053C3.04737 4.21053 2.10526 3.26842 2.10526 2.10526ZM5.26316 7.47368C5.26316 6.96842 5.52632 6.49474 5.89474 6.17895V5.52632C5.89474 5.5 5.90526 5.46842 5.90526 5.44211C5.38421 5.32632 4.81579 5.26316 4.21053 5.26316C1.88421 5.26316 0 6.20526 0 7.36842V8.42105H5.26316V7.47368ZM10.5263 7.52632V9.36842C10.5263 9.68421 10.2105 10 9.84211 10H6.94737C6.63158 10 6.31579 9.68421 6.31579 9.31579V7.47368C6.31579 7.1579 6.63158 6.84211 6.94737 6.84211V5.52632C6.94737 4.78947 7.68421 4.21053 8.42105 4.21053C9.1579 4.21053 9.89474 4.78947 9.89474 5.52632V5.78947H9.21053V5.52632C9.21053 5.10526 8.84211 4.84211 8.42105 4.84211C8 4.84211 7.63158 5.10526 7.63158 5.52632V6.84211H9.89474C10.2105 6.84211 10.5263 7.15789 10.5263 7.52632Z" fill="#005EB8"/>
</svg>
