<svg width="14" height="14" viewBox="0 0 14 14" fill="none" xmlns="http://www.w3.org/2000/svg">
<path d="M1.93203 12.9285C1.54543 13.3151 0.918631 13.3151 0.532031 12.9285V12.9285C0.145432 12.5419 0.145432 11.9151 0.532031 11.5285L4.72492 7.33559C5.11545 6.94506 5.11545 6.3119 4.72492 5.92137L0.532031 1.72848C0.145431 1.34188 0.145432 0.715078 0.532031 0.328479V0.328479C0.918631 -0.0581204 1.54543 -0.0581202 1.93203 0.328479L6.12492 4.52137C6.51545 4.9119 7.14861 4.9119 7.53914 4.52137L11.732 0.328479C12.1186 -0.0581208 12.7454 -0.0581204 13.132 0.328479V0.328479C13.5186 0.715078 13.5186 1.34188 13.132 1.72848L8.93914 5.92137C8.54861 6.3119 8.54861 6.94506 8.93914 7.33559L13.132 11.5285C13.5186 11.9151 13.5186 12.5419 13.132 12.9285V12.9285C12.7454 13.3151 12.1186 13.3151 11.732 12.9285L7.53914 8.73559C7.14861 8.34506 6.51545 8.34506 6.12492 8.73559L1.93203 12.9285Z" />
</svg>
