<svg width="393" height="250" viewBox="0 0 393 250" fill="none" xmlns="http://www.w3.org/2000/svg">
<path d="M0 0H393V190C393 223.137 366.137 250 333 250H60C26.8629 250 0 223.137 0 190V0Z" fill="#2378C9"/>
<path fill-rule="evenodd" clip-rule="evenodd" d="M174.667 49.5941C174.667 94.9728 130.435 164.98 75.8736 164.98C51.4912 164.98 23.5026 162.448 0 155.597V190C0 223.137 26.8629 250 60 250H333C333.462 250 333.922 249.995 334.381 249.984C334.053 249.978 333.725 249.97 333.396 249.961C299.532 249.961 271.825 236.723 271.825 203.269C271.825 169.816 313.721 154.71 347.585 154.71C375.311 153.646 387.817 153.206 393 155.538V0H139.385C160.305 11.4933 174.667 28.0784 174.667 49.5941ZM0 0H8.21881C5.41922 2.20537 2.67638 4.55994 0 7.04178V0Z" fill="#126ABD"/>
</svg>
