<svg width="24" height="18" viewBox="0 0 24 18" fill="none" xmlns="http://www.w3.org/2000/svg">
<path d="M22 3.53052V1.76526L14 6.1784L6 1.76526V3.53052L14 7.94366L22 3.53052ZM22 0C22.5304 0 23.0391 0.185982 23.4142 0.517032C23.7893 0.848082 24 1.29708 24 1.76526V12.3568C24 12.825 23.7893 13.274 23.4142 13.605C23.0391 13.9361 22.5304 14.1221 22 14.1221H6C4.89 14.1221 4 13.3277 4 12.3568V1.76526C4 0.78554 4.89 0 6 0H22ZM2 3.53052V15.8873H20V17.6526H2C1.46957 17.6526 0.960859 17.4666 0.585786 17.1355C0.210714 16.8045 0 16.3555 0 15.8873V3.53052H2Z"/>
</svg>
