<svg width="48" height="49" viewBox="0 0 48 49" fill="none" xmlns="http://www.w3.org/2000/svg">
<path d="M23.5111 37.308C20.2489 37.308 17.6333 35.262 17.6333 32.7614C17.6333 30.2381 20.2489 28.2149 23.5111 28.2149C25.0699 28.2149 26.565 28.6939 27.6673 29.5465C28.7696 30.3992 29.3888 31.5556 29.3888 32.7614C29.3888 33.9673 28.7696 35.1237 27.6673 35.9763C26.565 36.829 25.0699 37.308 23.5111 37.308ZM41.1444 44.1278V21.395H5.87772V44.1278H41.1444ZM41.1444 16.8485C42.7033 16.8485 44.1983 17.3275 45.3006 18.1801C46.4029 19.0328 47.0222 20.1892 47.0222 21.395V44.1278C47.0222 45.3336 46.4029 46.4901 45.3006 47.3427C44.1983 48.1954 42.7033 48.6744 41.1444 48.6744H5.87772C2.61555 48.6744 -6.10352e-05 46.6284 -6.10352e-05 44.1278V21.395C-6.10352e-05 18.8717 2.61555 16.8485 5.87772 16.8485H8.81661V12.3019C8.81661 9.28738 10.3648 6.3963 13.1205 4.26469C15.8763 2.13307 19.6138 0.935547 23.5111 0.935547C25.4408 0.935547 27.3516 1.22955 29.1344 1.80076C30.9172 2.37198 32.5371 3.20922 33.9016 4.26469C35.2661 5.32015 36.3485 6.57317 37.0869 7.95221C37.8254 9.33124 38.2055 10.8093 38.2055 12.3019V16.8485H41.1444ZM23.5111 5.4821C21.1727 5.4821 18.9302 6.20062 17.2767 7.47959C15.6233 8.75855 14.6944 10.4932 14.6944 12.3019V16.8485H32.3277V12.3019C32.3277 10.4932 31.3988 8.75855 29.7454 7.47959C28.0919 6.20062 25.8494 5.4821 23.5111 5.4821Z" fill="#C5C6C7"/>
</svg>
