<svg width="21" height="18" viewBox="0 0 21 18" fill="none" xmlns="http://www.w3.org/2000/svg">
<path d="M9 14C8.88333 14 8.78333 13.9667 8.7 13.9C8.61667 13.8333 8.55833 13.75 8.525 13.65C8.29167 12.95 8.00833 12.3667 7.675 11.9C7.34167 11.4333 7.00833 10.9833 6.675 10.55C6.34167 10.1167 6.0625 9.66667 5.8375 9.2C5.6125 8.73333 5.5 8.16667 5.5 7.5C5.5 6.53333 5.84167 5.70833 6.525 5.025C7.20833 4.34167 8.03333 4 9 4C9.96667 4 10.7917 4.34167 11.475 5.025C12.1583 5.70833 12.5 6.53333 12.5 7.5C12.5 8.16667 12.3875 8.73333 12.1625 9.2C11.9375 9.66667 11.6583 10.1167 11.325 10.55C10.9917 10.9833 10.6583 11.4333 10.325 11.9C9.99167 12.3667 9.70833 12.95 9.475 13.65C9.44167 13.75 9.38333 13.8333 9.3 13.9C9.21667 13.9667 9.11667 14 9 14ZM9 8.75C9.35 8.75 9.64583 8.62917 9.8875 8.3875C10.1292 8.14583 10.25 7.85 10.25 7.5C10.25 7.15 10.1292 6.85417 9.8875 6.6125C9.64583 6.37083 9.35 6.25 9 6.25C8.65 6.25 8.35417 6.37083 8.1125 6.6125C7.87083 6.85417 7.75 7.15 7.75 7.5C7.75 7.85 7.87083 8.14583 8.1125 8.3875C8.35417 8.62917 8.65 8.75 9 8.75ZM9 18C6.5 18 4.375 17.125 2.625 15.375C0.875 13.625 0 11.5 0 9C0 7.75 0.2375 6.57917 0.7125 5.4875C1.1875 4.39583 1.82917 3.44583 2.6375 2.6375C3.44583 1.82917 4.39583 1.1875 5.4875 0.7125C6.57917 0.2375 7.75 0 9 0C10.25 0 11.4208 0.2375 12.5125 0.7125C13.6042 1.1875 14.5542 1.82917 15.3625 2.6375C16.1708 3.44583 16.8125 4.39583 17.2875 5.4875C17.7625 6.57917 18 7.75 18 9V9.2L19.325 7.85L20.75 9.25L17 13L13.25 9.25L14.675 7.85L16 9.175V9C16 7.06667 15.3167 5.41667 13.95 4.05C12.5833 2.68333 10.9333 2 9 2C7.06667 2 5.41667 2.68333 4.05 4.05C2.68333 5.41667 2 7.06667 2 9C2.01667 10.9333 2.70417 12.5833 4.0625 13.95C5.42083 15.3167 7.06667 16 9 16C9.95 16 10.8417 15.8208 11.675 15.4625C12.5083 15.1042 13.2417 14.6167 13.875 14L15.3 15.425C14.4833 16.225 13.5375 16.8542 12.4625 17.3125C11.3875 17.7708 10.2333 18 9 18Z" />
</svg>
