<svg width="18" height="18" viewBox="0 0 18 18" fill="none" xmlns="http://www.w3.org/2000/svg">
<path d="M17.2893 17.225C16.9697 17.5447 16.4513 17.5447 16.1317 17.225L11.0387 12.1321C10.6755 11.7689 10.099 11.749 9.647 11.9932C9.31858 12.1705 8.95671 12.3206 8.56139 12.4433C7.83638 12.6683 7.13734 12.7808 6.46425 12.7808C4.6959 12.7808 3.19868 12.168 1.97259 10.9425C0.746478 9.71704 0.133423 8.22057 0.133423 6.4531C0.133423 4.68564 0.746169 3.18812 1.97166 1.96055C3.19715 0.732985 4.69364 0.119202 6.46112 0.119202C8.22862 0.119202 9.72615 0.732243 10.9537 1.95833C12.1813 3.18441 12.7951 4.68163 12.7951 6.44998C12.7951 7.16151 12.6845 7.85894 12.4633 8.54228C12.3446 8.90934 12.2 9.24921 12.0296 9.56189C11.7848 10.011 11.8061 10.584 12.1677 10.9457L17.2893 16.0673C17.609 16.387 17.609 16.9053 17.2893 17.225V17.225ZM6.46425 11.1308C7.79119 11.1308 8.90306 10.6824 9.79985 9.78555C10.6967 8.88875 11.1451 7.77689 11.1451 6.44998C11.1451 5.12306 10.6967 4.0112 9.79985 3.1144C8.90306 2.2176 7.79119 1.7692 6.46425 1.7692C5.13732 1.7692 4.02545 2.2176 3.12865 3.1144C2.23186 4.0112 1.78346 5.12306 1.78346 6.44998C1.78346 7.77689 2.23186 8.88875 3.12865 9.78555C4.02545 10.6824 5.13732 11.1308 6.46425 11.1308Z" />
</svg>
