<svg width="150" height="150" viewBox="0 0 150 150" fill="none" xmlns="http://www.w3.org/2000/svg">
<rect width="150" height="150" rx="75" fill="#2EB85C"/>
<path d="M75 116.667C69.2361 116.667 63.8195 115.573 58.75 113.385C53.6806 111.198 49.2708 108.229 45.5208 104.479C41.7708 100.729 38.8021 96.3194 36.6146 91.2499C34.4271 86.1805 33.3333 80.7638 33.3333 74.9999C33.3333 69.236 34.4271 63.8194 36.6146 58.7499C38.8021 53.6805 41.7708 49.2708 45.5208 45.5208C49.2708 41.7708 53.6806 38.802 58.75 36.6145C63.8195 34.427 69.2361 33.3333 75 33.3333C79.5139 33.3333 83.7847 33.993 87.8125 35.3124C91.8403 36.6319 95.5556 38.4721 98.9584 40.8333L92.9167 46.9791C90.2778 45.3124 87.4653 44.0103 84.4792 43.0728C81.4931 42.1353 78.3333 41.6666 75 41.6666C65.7639 41.6666 57.8993 44.9131 51.4063 51.4062C44.9132 57.8992 41.6667 65.7638 41.6667 74.9999C41.6667 84.236 44.9132 92.1006 51.4063 98.5937C57.8993 105.087 65.7639 108.333 75 108.333C84.2361 108.333 92.1007 105.087 98.5938 98.5937C105.087 92.1006 108.333 84.236 108.333 74.9999C108.333 73.7499 108.264 72.4999 108.125 71.2499C107.986 69.9999 107.778 68.7846 107.5 67.6041L114.271 60.8333C115.035 63.0555 115.625 65.3471 116.042 67.7083C116.458 70.0694 116.667 72.4999 116.667 74.9999C116.667 80.7638 115.573 86.1805 113.385 91.2499C111.198 96.3194 108.229 100.729 104.479 104.479C100.729 108.229 96.3195 111.198 91.25 113.385C86.1806 115.573 80.7639 116.667 75 116.667ZM69.1667 94.1666L51.4583 76.4583L57.2917 70.6249L69.1667 82.4999L110.833 40.7291L116.667 46.5624L69.1667 94.1666Z" fill="white"/>
</svg>
